M48
; DRILL file {KiCad (5.1.2)-2} date 7/27/2020 7:16:24 PM
; FORMAT={-:-/ absolute / inch / decimal}
; #@! TF.CreationDate,2020-07-27T19:16:24-04:00
; #@! TF.GenerationSoftware,Kicad,Pcbnew,(5.1.2)-2
; #@! TF.FileFunction,Plated,1,2,PTH
FMAT,2
INCH
T1C0.0157
T2C0.0256
T3C0.0295
T4C0.0300
T5C0.0315
T6C0.0354
T7C0.0394
T8C0.0433
T9C0.0500
T10C0.0866
%
G90
G05
T1
X3.09Y-3.94
X3.09Y-4.01
X3.09Y-4.08
X3.09Y-4.15
X3.09Y-4.22
X3.09Y-4.55
X3.09Y-4.62
X3.09Y-4.69
X3.09Y-4.76
X3.09Y-4.83
X3.09Y-5.07
X3.09Y-5.14
X3.09Y-5.21
X3.09Y-5.28
X3.09Y-5.35
X3.19Y-4.55
X3.19Y-4.62
X3.19Y-4.69
X3.19Y-4.76
X3.19Y-4.83
X3.19Y-5.07
X3.19Y-5.14
X3.19Y-5.21
X3.19Y-5.28
X3.19Y-5.35
X3.2Y-3.94
X3.2Y-4.01
X3.2Y-4.08
X3.2Y-4.15
X3.2Y-4.22
X3.26Y-1.81
X3.3Y-4.55
X3.3Y-4.62
X3.3Y-4.69
X3.3Y-4.76
X3.3Y-4.83
X3.3Y-5.07
X3.3Y-5.14
X3.3Y-5.21
X3.3Y-5.28
X3.3Y-5.35
X3.32Y-3.94
X3.32Y-4.01
X3.32Y-4.08
X3.32Y-4.15
X3.32Y-4.22
X3.37Y-1.81
X3.42Y-4.55
X3.42Y-4.62
X3.42Y-4.69
X3.42Y-4.76
X3.42Y-4.83
X3.42Y-5.07
X3.42Y-5.14
X3.42Y-5.21
X3.42Y-5.28
X3.42Y-5.35
X3.44Y-3.94
X3.44Y-4.01
X3.44Y-4.08
X3.44Y-4.15
X3.44Y-4.22
X3.49Y-1.81
X3.52Y-3.01
X3.63Y-3.01
X3.64Y-4.83
X3.64Y-4.9
X3.64Y-4.97
X3.64Y-5.04
X3.64Y-5.11
X3.64Y-5.31
X3.64Y-5.38
X3.64Y-5.45
X3.64Y-5.52
X3.64Y-5.59
X3.65Y-2.23
X3.66Y-1.81
X3.73Y-3.72
X3.74Y-4.83
X3.74Y-4.9
X3.74Y-4.97
X3.74Y-5.04
X3.74Y-5.11
X3.74Y-5.31
X3.74Y-5.38
X3.74Y-5.45
X3.74Y-5.52
X3.74Y-5.59
X3.75Y-3.01
X3.76Y-2.23
X3.77Y-1.81
X3.85Y-4.83
X3.85Y-4.9
X3.85Y-4.97
X3.85Y-5.04
X3.85Y-5.11
X3.85Y-5.31
X3.85Y-5.38
X3.85Y-5.45
X3.85Y-5.52
X3.85Y-5.59
X3.88Y-2.23
X3.89Y-1.81
X3.97Y-2.23
X3.97Y-4.83
X3.97Y-4.9
X3.97Y-4.97
X3.97Y-5.04
X3.97Y-5.11
X3.97Y-5.31
X3.97Y-5.38
X3.97Y-5.45
X3.97Y-5.52
X3.97Y-5.59
X4.06Y-1.81
X4.08Y-2.23
X4.17Y-1.81
X4.18Y-5.31
X4.18Y-5.38
X4.18Y-5.45
X4.18Y-5.52
X4.18Y-5.59
X4.2Y-2.23
X4.26Y-2.52
X4.28Y-5.31
X4.28Y-5.38
X4.28Y-5.45
X4.28Y-5.52
X4.28Y-5.59
X4.29Y-1.81
X4.37Y-2.52
X4.39Y-5.31
X4.39Y-5.38
X4.39Y-5.45
X4.39Y-5.52
X4.39Y-5.59
X4.45Y-1.81
X4.49Y-2.52
X4.51Y-5.31
X4.51Y-5.38
X4.51Y-5.45
X4.51Y-5.52
X4.51Y-5.59
X4.56Y-1.81
X4.68Y-1.81
X4.79Y-1.81
X4.79Y-2.5
X4.9Y-1.81
X4.9Y-2.5
X4.97Y-4.39
X4.97Y-4.49
X5.02Y-1.81
X5.02Y-2.5
X5.08Y-4.39
X5.08Y-4.49
X5.11Y-1.81
X5.2Y-4.39
X5.2Y-4.49
X5.22Y-1.81
X5.3Y-4.64
X5.34Y-1.81
X5.41Y-4.64
X5.53Y-4.64
X5.63Y-4.46
X5.63Y-4.55
X5.63Y-4.64
X5.74Y-4.46
X5.74Y-4.55
X5.74Y-4.64
X5.86Y-4.46
X5.86Y-4.55
X5.86Y-4.64
X6.108Y-4.894
X6.109Y-4.982
X6.111Y-5.076
X6.13Y-3.88
X6.14Y-3.23
X6.216Y-4.553
X6.218Y-4.454
X6.24Y-3.88
X6.25Y-3.23
X6.36Y-3.88
X6.37Y-3.23
X6.48Y-3.88
X6.54Y-3.23
X6.56Y-4.31
X6.59Y-3.88
X6.65Y-3.23
X6.71Y-3.88
X6.77Y-3.23
X5.305Y-4.52
X5.3241Y-4.4741
X5.3241Y-4.5659
X5.37Y-4.455
X5.37Y-4.585
X5.4159Y-4.4741
X5.4159Y-4.5659
X5.435Y-4.52
X5.31Y-5.3
X5.3291Y-5.2541
X5.3291Y-5.3459
X5.375Y-5.235
X5.375Y-5.365
X5.4209Y-5.2541
X5.4209Y-5.3459
X5.44Y-5.3
T2
X6.525Y-3.975
X6.275Y-3.975
X6.025Y-3.975
X6.775Y-3.975
T3
X6.0Y-2.425
X6.05Y-2.425
X6.1Y-2.425
X3.925Y-3.175
X3.925Y-3.225
X3.925Y-3.275
X5.775Y-5.45
X5.775Y-5.5
X5.775Y-5.55
X6.295Y-4.865
X6.295Y-4.915
X6.295Y-4.965
X6.05Y-4.55
X6.05Y-4.6
X6.05Y-4.65
X4.95Y-3.525
X5.0Y-3.525
X5.05Y-3.525
X6.3Y-5.175
X6.3Y-5.225
X6.3Y-5.275
X5.1Y-1.95
X5.15Y-1.95
X5.2Y-1.95
X5.425Y-3.825
X5.425Y-3.875
X5.425Y-3.925
X3.925Y-3.675
X3.925Y-3.725
X3.925Y-3.775
X4.15Y-3.525
X4.15Y-3.575
X4.15Y-3.625
X5.3Y-3.2
X5.35Y-3.2
X5.4Y-3.2
X3.825Y-3.975
X3.875Y-3.975
X3.925Y-3.975
X3.925Y-3.425
X3.925Y-3.475
X3.925Y-3.525
T4
X4.65Y-2.2
X4.65Y-2.4
X4.9Y-2.2
X4.9Y-2.4
X5.65Y-3.15
X5.65Y-3.4
X5.85Y-3.15
X5.85Y-3.4
X3.675Y-2.1
X3.675Y-2.35
X3.875Y-2.1
X3.875Y-2.35
X5.075Y-2.125
X5.075Y-2.375
X5.225Y-2.125
X5.225Y-2.375
X5.375Y-2.125
X5.375Y-2.375
X5.9Y-1.95
X5.9Y-2.1
X5.9Y-2.25
X6.15Y-1.95
X6.15Y-2.1
X6.15Y-2.25
X6.6Y-2.105
X6.6Y-2.255
X6.6Y-2.405
X6.85Y-2.105
X6.85Y-2.255
X6.85Y-2.405
X4.13Y-2.75
X4.13Y-3.0
X4.28Y-2.75
X4.28Y-3.0
X4.43Y-2.75
X4.43Y-3.0
X4.515Y-3.48
X4.515Y-3.73
X4.715Y-3.48
X4.715Y-3.73
T5
X6.07Y-5.4022
X6.07Y-5.54
X4.125Y-3.85
X4.325Y-3.85
X6.375Y-3.1281
X6.375Y-3.325
X6.48Y-4.85
X6.48Y-5.0469
X4.925Y-2.8031
X4.925Y-3.0
X4.975Y-3.325
X5.175Y-3.325
X6.775Y-3.575
X6.775Y-3.7671
X3.11Y-3.37
X3.41Y-3.37
X5.45Y-3.475
X5.45Y-3.6719
X5.8Y-3.55
X5.8Y-3.7469
X4.625Y-3.875
X4.825Y-3.875
X6.2Y-2.725
X6.3969Y-2.725
X3.675Y-1.925
X3.875Y-1.925
X3.8Y-4.15
X4.0Y-4.15
X4.4Y-1.925
X4.5969Y-1.925
X5.55Y-2.4
X5.7469Y-2.4
X4.75Y-3.125
X4.75Y-3.325
X5.6781Y-2.875
X5.875Y-2.875
X3.11Y-2.68
X3.41Y-2.68
X4.075Y-4.3
X4.2719Y-4.3
X6.0Y-4.8
X6.0Y-5.0
X5.275Y-3.45
X5.275Y-3.65
X5.25Y-4.05
X5.25Y-4.25
X5.35Y-2.6
X5.55Y-2.6
X6.06Y-4.2322
X6.06Y-4.37
X3.68Y-3.1331
X3.68Y-3.33
X6.35Y-5.425
X6.55Y-5.425
X4.75Y-1.925
X4.9469Y-1.925
X5.785Y-4.82
X5.785Y-5.0169
X4.55Y-3.125
X4.55Y-3.3219
X6.15Y-2.9
X6.35Y-2.9
X3.17Y-2.51
X3.3669Y-2.51
X6.25Y-2.575
X6.35Y-2.575
X6.025Y-3.575
X6.025Y-3.7671
X5.0Y-2.6
X5.2Y-2.6
X4.625Y-4.0
X4.625Y-4.1969
X4.525Y-4.3713
X4.525Y-4.45
X4.575Y-2.775
X4.575Y-2.975
X3.1731Y-2.84
X3.37Y-2.84
X6.025Y-2.65
X6.025Y-2.85
X4.275Y-2.425
X4.275Y-2.6219
X3.175Y-3.175
X3.3719Y-3.175
X5.13Y-4.78
X5.13Y-4.92
X5.13Y-5.06
X5.63Y-4.78
X5.63Y-4.92
X5.63Y-5.06
X6.525Y-3.575
X6.525Y-3.7671
X6.6Y-3.1281
X6.6Y-3.325
X5.675Y-3.025
X5.875Y-3.025
X4.75Y-2.8
X4.75Y-2.9969
X6.325Y-4.7
X6.525Y-4.7
X5.93Y-5.18
X6.13Y-5.18
X5.625Y-3.9
X5.625Y-4.1
X5.05Y-4.0463
X5.05Y-4.125
X5.7Y-2.6
X5.9Y-2.6
X6.275Y-3.575
X6.275Y-3.7671
X6.325Y-5.6
X6.525Y-5.6
X4.64Y-4.86
X4.8369Y-4.86
X5.625Y-3.55
X5.625Y-3.75
X6.55Y-2.8
X6.55Y-2.9969
X5.425Y-4.075
X5.425Y-4.275
X6.3Y-2.15
X6.3Y-2.35
X3.7Y-2.675
X3.7Y-2.8719
X5.35Y-1.925
X5.5469Y-1.925
X4.64Y-5.04
X4.8369Y-5.04
X5.0Y-3.825
X5.1969Y-3.825
X6.55Y-5.23
X6.6287Y-5.23
X4.975Y-3.15
X5.175Y-3.15
X6.45Y-2.15
X6.45Y-2.35
X3.11Y-3.01
X3.41Y-3.01
X6.15Y-3.125
X6.15Y-3.3219
X4.1Y-4.05
X4.4Y-4.05
X4.475Y-2.425
X4.475Y-2.6219
X5.625Y-4.325
X5.8219Y-4.325
X6.825Y-3.1281
X6.825Y-3.325
X5.1Y-2.825
X5.1Y-3.025
X4.8Y-3.9981
X4.8Y-4.195
X6.425Y-4.275
X6.425Y-4.475
X4.74Y-4.57
X4.8778Y-4.57
X6.825Y-2.725
X6.825Y-2.925
X4.6Y-2.6
X4.8Y-2.6
X4.0781Y-4.45
X4.275Y-4.45
X6.83Y-5.02
X6.83Y-5.22
X5.5Y-2.8031
X5.5Y-3.0
X5.8Y-3.95
X5.8Y-4.15
X6.2781Y-4.125
X6.475Y-4.125
X5.5281Y-2.175
X5.725Y-2.175
X5.325Y-2.8
X5.325Y-3.0
T6
X5.725Y-1.875
X5.725Y-1.975
T7
X3.175Y-3.625
X3.175Y-3.725
X6.675Y-2.59
X6.775Y-2.59
X6.64Y-4.79
X6.74Y-4.79
X6.84Y-4.79
X5.425Y-5.55
X5.525Y-5.55
X3.94Y-2.805
X3.94Y-2.905
X3.418Y-3.61
X3.518Y-3.61
X3.618Y-3.61
X6.79Y-4.12
X6.79Y-4.22
X4.145Y-1.92
X4.145Y-2.02
X4.145Y-2.12
X5.1Y-5.55
X5.2Y-5.55
T8
X6.81Y-4.43
X3.33Y-2.35
X6.64Y-4.41
X6.64Y-4.56
X3.17Y-2.2
X6.81Y-4.58
X3.18Y-2.35
X4.925Y-5.2
X4.925Y-5.35
X3.32Y-2.2
T9
X3.85Y-2.6
X4.0Y-2.4
X4.15Y-2.6
X4.275Y-2.275
X4.425Y-2.075
X4.575Y-2.275
X3.315Y-2.05
X3.515Y-1.9
X3.515Y-2.2
T10
X5.37Y-4.52
X5.375Y-5.3
T0
M30
