M48
; DRILL file {KiCad (5.1.2)-2} date 7/27/2020 7:05:46 PM
; FORMAT={-:-/ absolute / inch / decimal}
; #@! TF.CreationDate,2020-07-27T19:05:46-04:00
; #@! TF.GenerationSoftware,Kicad,Pcbnew,(5.1.2)-2
; #@! TF.FileFunction,Plated,1,2,PTH
FMAT,2
INCH
T1C0.0157
T2C0.0300
T3C0.0315
T4C0.0394
T5C0.0433
T6C0.0512
T7C0.0591
%
G90
G05
T1
X3.05Y-4.71
X3.05Y-4.79
X3.05Y-4.86
X3.05Y-4.93
X3.05Y-4.99
X3.05Y-5.05
X3.05Y-5.11
X3.05Y-5.17
X3.07Y-2.34
X3.07Y-4.05
X3.07Y-4.13
X3.07Y-4.2
X3.07Y-4.27
X3.07Y-4.33
X3.07Y-4.39
X3.07Y-4.45
X3.07Y-4.51
X3.25Y-5.62
X3.33Y-5.62
X3.34Y-1.86
X3.34Y-1.99
X3.34Y-2.12
X3.4Y-1.86
X3.4Y-1.99
X3.4Y-2.12
X3.4Y-5.62
X3.46Y-1.86
X3.46Y-1.99
X3.46Y-2.12
X3.47Y-5.62
X3.487Y-4.269
X3.52Y-1.86
X3.52Y-1.99
X3.52Y-2.12
X3.53Y-5.62
X3.58Y-1.86
X3.58Y-1.99
X3.58Y-2.12
X3.59Y-5.62
X3.65Y-1.86
X3.65Y-1.99
X3.65Y-2.12
X3.65Y-5.62
X3.71Y-5.62
X3.72Y-1.86
X3.72Y-1.99
X3.72Y-2.12
X3.8Y-1.86
X3.8Y-1.99
X3.8Y-2.12
X3.801Y-5.446
X3.895Y-5.495
X3.999Y-4.42
X3.999Y-4.48
X3.999Y-4.54
X3.999Y-4.6
X3.999Y-4.66
X3.999Y-4.73
X3.999Y-4.8
X3.999Y-4.88
X4.25Y-1.86
X4.25Y-1.98
X4.25Y-2.1
X4.31Y-1.86
X4.31Y-1.98
X4.31Y-2.1
X4.327Y-5.485
X4.327Y-5.545
X4.37Y-1.86
X4.37Y-1.98
X4.37Y-2.1
X4.43Y-1.86
X4.43Y-1.98
X4.43Y-2.1
X4.49Y-1.86
X4.49Y-1.98
X4.49Y-2.1
X4.56Y-1.86
X4.56Y-1.98
X4.56Y-2.1
X4.63Y-1.86
X4.63Y-1.98
X4.63Y-2.1
X4.648Y-5.417
X4.71Y-1.86
X4.71Y-1.98
X4.71Y-2.1
X4.723Y-4.775
X4.723Y-4.835
X4.77Y-5.329
X4.795Y-2.804
X4.875Y-2.804
X4.917Y-5.493
X4.917Y-5.553
X4.945Y-2.804
X5.015Y-2.804
X5.075Y-2.804
X5.098Y-3.971
X5.102Y-4.134
X5.135Y-2.804
X5.178Y-3.971
X5.182Y-4.134
X5.195Y-2.804
X5.248Y-3.971
X5.252Y-4.134
X5.255Y-2.804
X5.28Y-5.2
X5.29Y-2.04
X5.318Y-3.971
X5.322Y-4.134
X5.35Y-2.04
X5.36Y-5.2
X5.378Y-3.971
X5.38Y-2.51
X5.382Y-4.134
X5.41Y-2.04
X5.43Y-5.2
X5.438Y-3.971
X5.442Y-4.134
X5.47Y-2.04
X5.498Y-3.971
X5.5Y-5.2
X5.502Y-4.134
X5.53Y-2.04
X5.558Y-3.971
X5.56Y-5.2
X5.562Y-4.134
X5.6Y-2.04
X5.62Y-5.2
X5.68Y-5.2
X5.74Y-5.2
X5.75Y-2.04
X5.821Y-3.97
X5.821Y-4.159
X6.02Y-3.87
X6.18Y-3.87
X6.31Y-2.84
X6.31Y-2.99
X6.31Y-3.15
X6.31Y-3.3
X6.31Y-3.43
X6.345Y-4.57
X6.37Y-2.84
X6.37Y-2.99
X6.37Y-3.15
X6.37Y-3.3
X6.37Y-3.43
X6.425Y-4.57
X6.43Y-2.84
X6.43Y-2.99
X6.43Y-3.15
X6.43Y-3.3
X6.43Y-3.43
X6.49Y-2.84
X6.49Y-2.99
X6.49Y-3.15
X6.49Y-3.3
X6.49Y-3.43
X6.495Y-4.57
X6.55Y-2.84
X6.55Y-2.99
X6.55Y-3.15
X6.55Y-3.3
X6.55Y-3.43
X6.565Y-4.57
X6.59Y-5.38
X6.62Y-2.84
X6.62Y-2.99
X6.62Y-3.15
X6.62Y-3.3
X6.62Y-3.43
X6.625Y-4.57
X6.685Y-4.57
X6.69Y-2.84
X6.69Y-2.99
X6.69Y-3.15
X6.69Y-3.3
X6.69Y-3.43
X6.703Y-3.877
X6.703Y-3.937
X6.72Y-5.38
X6.745Y-4.57
X6.77Y-2.84
X6.77Y-2.99
X6.77Y-3.15
X6.77Y-3.3
X6.77Y-3.43
X6.805Y-4.57
X6.85Y-5.38
T2
X3.75Y-2.545
X3.85Y-2.545
X3.95Y-2.545
X4.05Y-2.545
X4.15Y-2.545
X4.25Y-2.545
X4.35Y-2.545
X5.2755Y-3.7044
X5.3755Y-3.7044
X5.4755Y-3.7044
X5.5755Y-3.7044
X5.6755Y-3.7044
X5.7755Y-3.7044
X5.8755Y-3.7044
X5.9755Y-3.7044
X5.55Y-2.4096
X5.65Y-2.4096
X5.75Y-2.4096
X5.85Y-2.4096
T3
X5.56Y-4.55
X5.76Y-4.55
X5.3231Y-4.814
X5.52Y-4.814
X6.59Y-4.02
X6.59Y-4.22
X5.4781Y-1.875
X5.675Y-1.875
X6.64Y-2.28
X6.84Y-2.28
X4.91Y-4.57
X5.11Y-4.57
X5.142Y-5.181
X5.142Y-5.3779
X3.17Y-3.5031
X3.17Y-3.7
X3.77Y-3.18
X3.97Y-3.18
X6.39Y-4.0231
X6.39Y-4.22
X4.35Y-3.35
X4.55Y-3.35
X5.27Y-4.56
X5.4669Y-4.56
X5.65Y-4.4
X5.85Y-4.4
X3.1831Y-3.82
X3.38Y-3.82
X6.2031Y-1.9
X6.4Y-1.9
X4.794Y-5.493
X4.794Y-5.5717
X3.2031Y-2.65
X3.4Y-2.65
X6.21Y-4.18
X6.21Y-4.38
X3.621Y-3.969
X3.621Y-4.069
X3.621Y-4.169
X3.621Y-4.269
X3.621Y-4.369
X3.621Y-4.469
X3.621Y-4.569
X3.621Y-4.669
X3.621Y-4.769
X3.621Y-4.869
X3.621Y-4.969
X3.621Y-5.069
X3.621Y-5.169
X3.621Y-5.269
X3.621Y-5.369
X4.221Y-3.969
X4.221Y-4.069
X4.221Y-4.169
X4.221Y-4.269
X4.221Y-4.369
X4.221Y-4.469
X4.221Y-4.569
X4.221Y-4.669
X4.221Y-4.769
X4.221Y-4.869
X4.221Y-4.969
X4.221Y-5.069
X4.221Y-5.169
X4.221Y-5.269
X4.221Y-5.369
X3.15Y-2.775
X3.15Y-2.875
X3.15Y-2.975
X3.15Y-3.075
X3.15Y-3.175
X3.15Y-3.275
X3.15Y-3.375
X3.45Y-2.775
X3.45Y-2.875
X3.45Y-2.975
X3.45Y-3.075
X3.45Y-3.175
X3.45Y-3.275
X3.45Y-3.375
X3.78Y-2.77
X3.78Y-2.97
X6.6Y-4.42
X6.7969Y-4.42
X4.35Y-3.67
X4.55Y-3.67
X3.63Y-3.18
X3.63Y-3.38
X5.92Y-4.56
X6.1169Y-4.56
X4.927Y-4.968
X5.127Y-4.968
X4.35Y-3.03
X4.55Y-3.03
X5.3231Y-5.004
X5.52Y-5.004
X5.99Y-4.18
X5.99Y-4.38
X4.2531Y-2.825
X4.45Y-2.825
X6.67Y-2.13
X6.87Y-2.13
X4.344Y-3.511
X4.544Y-3.511
X6.67Y-2.43
X6.87Y-2.43
X5.95Y-3.98
X6.1469Y-3.98
X4.912Y-4.736
X5.112Y-4.736
X4.346Y-3.188
X4.546Y-3.188
T4
X3.354Y-3.969
X3.354Y-4.069
X3.354Y-4.169
X3.354Y-4.269
X3.354Y-4.369
X3.354Y-4.469
X3.354Y-4.569
X3.354Y-4.669
X3.354Y-4.769
X3.354Y-4.869
X3.354Y-4.969
X3.354Y-5.069
X3.354Y-5.169
X3.354Y-5.269
X3.354Y-5.369
X5.375Y-4.4
X5.475Y-4.4
X3.125Y-4.825
X3.125Y-4.925
X3.125Y-5.025
X6.675Y-2.59
X6.775Y-2.59
X4.528Y-3.969
X4.528Y-4.069
X4.528Y-4.169
X4.528Y-4.269
X4.528Y-4.369
X4.528Y-4.469
X4.528Y-4.569
X4.528Y-4.669
X4.528Y-4.769
X4.528Y-4.869
X4.528Y-4.969
X4.528Y-5.069
X4.528Y-5.169
X4.528Y-5.269
X4.528Y-5.369
X3.418Y-3.61
X3.518Y-3.61
X3.618Y-3.61
X5.845Y-4.816
X5.845Y-4.9144
X5.845Y-5.0129
X6.4159Y-4.816
X6.4159Y-5.0129
X3.94Y-2.805
X3.94Y-2.905
X5.4Y-5.45
X5.4Y-5.55
X6.79Y-4.12
X6.79Y-4.22
X5.1Y-5.55
X5.2Y-5.55
T5
X5.6191Y-5.3728
X5.6191Y-5.55
X5.875Y-5.3728
X5.875Y-5.55
X4.925Y-5.2
X4.925Y-5.35
X6.58Y-5.0528
X6.58Y-5.23
X6.8359Y-5.0528
X6.8359Y-5.23
X6.1941Y-5.375
X6.1941Y-5.5522
X6.45Y-5.375
X6.45Y-5.5522
T6
X6.72Y-3.7
X6.8184Y-3.6016
X6.8184Y-3.7984
T7
G00X6.1147Y-4.694
M15
G01X6.1659Y-4.694
M16
G05
G00X6.1147Y-5.1349
M15
G01X6.1659Y-5.1349
M16
G05
T0
M30
